<svg height="20" viewBox="0 0 20 20" width="20" xmlns="http://www.w3.org/2000/svg"><path d="m6.00167 3.99999998c.07868 0 .15737.01841002.22901.05531002.04513.02316.08747.05364.12527.09144l3.50006 3.50034c.19529.19526.19529.51184 0 .70711-.19527.19526-.51185.19526-.70711 0l-2.6489-2.6489v9.7947c0 .2761-.22386.5-.5.5s-.5-.2239-.5-.5v-9.79019l-2.64437 2.64437c-.19526.19526-.51185.19526-.70711 0-.19526-.19527-.19526-.51185 0-.70711l3.46833-3.46833c.073376-.087416.1761152-.14936001.2930368-.17064097zm8.00283.00000002c.2762 0 .5.22386.5.5v9.7902l2.6444-2.6444c.1953-.1952.5118-.1952.7071 0 .1953.1953.1953.5119 0 .7071l-3.4683 3.4684c-.07344.08736-.176192.149312-.2931008.1705984l-.0917992.0081016c-.0786 0-.1573-.0184-.229-.0553l-.0653375-.040225-.0698625-.061475-3.4901-3.4901c-.19525-.1952-.19525-.5118 0-.7071.1953-.1953.5119-.1953.7071 0l2.6489 2.6489v-9.7947c0-.27614.2239-.5.5-.5z" fill="#212121"/></svg>